<svg version="1" xmlns="http://www.w3.org/2000/svg" width="625.333" height="625.333" viewBox="0 0 469.000000 469.000000"><path d="M194.5 39.6C116.2 55.6 55.3 116.9 40 195.3c-1.3 6.4-2.1 11.9-1.8 12.2.6.7 65.9 9.5 70 9.5 2.2 0 2.7-.5 3.3-3.3 7.3-38.1 27.8-68.1 59.5-86.9 12.7-7.5 29.8-13.8 41.8-15.5 2.4-.3 4.6-1.1 4.8-1.7.7-2-9.1-71.9-10.1-72.2-.5-.1-6.4.9-13 2.2zM259.5 38.3c-.4 1.2-9.5 69.5-9.5 71.4 0 .6 2.3 1.3 5 1.7 15 2 36.3 11 51.2 21.6 16.6 11.9 33.1 32.1 41.2 50.7 3.4 7.6 7.6 22 9 30.5.6 3.5.8 3.6 3.9 3.2 1.8-.3 18-2.4 36-4.8s33.1-4.7 33.4-5c.9-.8-1.3-14.1-3.8-23.6-15.4-58-54.2-104.6-108.2-130-17.1-8-30.8-12.2-54.5-16.4-2.2-.4-3.4-.1-3.7.7zM107.5 249.8c-12.3 1.3-68.8 9.1-69.2 9.6-.8.8 1.5 14.7 4.2 24.6 9.5 35.5 27.8 66.8 54.1 92 11.2 10.8 18.1 16.2 30.5 24.3 16.5 10.6 38 20.1 55.8 24.7 8.4 2.1 25.2 5.3 25.6 4.8.3-.4 9.5-70.8 9.5-72.3 0-.6-3.2-1.6-7.2-2.3-45.4-7.8-86.1-46.4-96.8-91.7-3.5-14.8-3.1-14-6.5-13.7zM356 255.4c-9.3 49.4-46.5 88.1-95 99-5.5 1.2-10.2 2.4-10.5 2.8-.7.7 8.5 71 9.4 72.1.4.4 6.6-.4 13.7-1.8 67.4-13.4 124.8-63.2 147.2-128 5.3-15.6 10.5-38.6 8.9-40.1-.3-.3-15.5-2.5-33.9-4.9-18.3-2.5-34.5-4.6-36-4.8-2.5-.3-2.7 0-3.8 5.7z"/></svg>